<svg fill="none" height="20" viewBox="0 0 20 20" width="20" xmlns="http://www.w3.org/2000/svg"><g stroke="#dadada" stroke-linecap="round" stroke-linejoin="round"><path d="m15.8333 9.16666h-11.66663c-.92048 0-1.66667.74619-1.66667 1.66664v5.8334c0 .9204.74619 1.6666 1.66667 1.6666h11.66663c.9205 0 1.6667-.7462 1.6667-1.6666v-5.8334c0-.92045-.7462-1.66664-1.6667-1.66664z"/><path d="m5.83203 9.16666v-3.33334c0-1.10507.43899-2.16487 1.22039-2.94628.7814-.7814 1.84121-1.22038 2.94628-1.22038 1.1051 0 2.1649.43898 2.9463 1.22038.7814.78141 1.2204 1.84121 1.2204 2.94628v3.33334"/></g></svg>